<svg version="1.1" id="Norwegian_x5F_OUTLINE_x5F_2020" xmlns="http://www.w3.org/2000/svg" xmlns:xlink="http://www.w3.org/1999/xlink" x="0px" y="0px" viewBox="0 0 313.39 158.56" style="enable-background:new 0 0 313.39 158.56;" xml:space="preserve">
<style type="text/css"> .st0{fill:none;}
</style>
<g> <rect x="0" y="0" class="st0" width="313.39" height="158.56"></rect>
</g>
<g> <g> <path d="M73.26,43.22c-0.22,0.33-0.56,0.56-1.33,0.56c-1.89,0-4.12-0.11-6.68-0.11c-2,0-3.45,0-5.67,0.06c0,0-0.06-0.17-0.06-0.28 c0-0.22,0.06-0.39,0.11-0.44c1.22-0.11,1.72-0.28,2.11-0.5c0.39-0.17,0.61-0.83,0.61-6.29v-4.4c0-5.45-0.22-6.12-0.61-6.29 c-0.39-0.22-0.89-0.39-2.11-0.56c-0.06,0-0.11-0.28-0.11-0.44c0-0.11,0.06-0.22,0.06-0.22h8.34c0,0,0.06,0.11,0.06,0.22 c0,0.17-0.06,0.44-0.11,0.44c-1.22,0.17-1.72,0.33-2.11,0.56c-0.39,0.17-0.61,0.83-0.61,6.29v4.4c0,3.62,0.28,5.29,0.67,5.73 c0.33,0.33,0.78,0.56,2.56,0.56c1.72,0,2.89-0.44,3.62-1.28c0.67-0.78,1.17-2.06,1.39-3c0-0.06,0.11-0.06,0.22-0.06 c0.22,0,0.56,0.06,0.56,0.17C73.98,39.89,73.54,42.78,73.26,43.22z"></path> <path d="M86.94,37.61h-7.07l-0.67,1.84c-0.56,1.5-0.67,2.17-0.67,2.61c0,0.5,0.45,0.78,1.72,0.89c0.06,0,0.11,0.17,0.11,0.33 c0,0.17-0.06,0.39-0.11,0.39h-6.45c-0.06,0-0.11-0.17-0.11-0.33c0-0.17,0.06-0.33,0.11-0.39c0.95-0.06,1.5-0.22,1.95-0.56 c0.61-0.44,1.28-1.56,3.06-6.23l1.67-4.34c0.95-2.5,1.95-5.12,2.73-7.45c0-0.11,0.33-0.17,0.67-0.17c0.33,0,0.67,0.06,0.72,0.17 c0.78,2.34,1.61,4.34,2.5,6.68l2,5.12c2.22,5.67,2.67,5.95,3.23,6.29c0.56,0.33,1,0.45,1.89,0.5c0.06,0,0.06,0.11,0.06,0.28 c0,0.22,0,0.45-0.06,0.45h-7.18C87,43.67,87,43.45,87,43.22c0-0.17,0-0.28,0.06-0.28c0.95-0.06,1.56-0.28,1.56-0.72 c0-0.33-0.17-0.89-0.83-2.56L86.94,37.61z M80.43,36.21h6.01l-3.06-7.9L80.43,36.21z"></path> <path d="M101.52,43.67c0,0-0.06-0.17-0.06-0.28c0-0.22,0.06-0.39,0.11-0.44c1.22-0.11,2-0.28,2.34-0.5 c0.39-0.17,0.67-0.83,0.67-6.29v-4.34c0-5.45-0.28-6.12-0.67-6.29c-0.33-0.22-1.11-0.39-2.34-0.56c-0.06,0-0.11-0.28-0.11-0.44 c0-0.11,0.06-0.22,0.06-0.22h8.85c0,0,0.06,0.11,0.06,0.22c0,0.17-0.06,0.44-0.11,0.44c-1.22,0.17-2,0.33-2.34,0.56 c-0.39,0.17-0.67,0.83-0.67,6.29v4.34c0,5.45,0.28,6.12,0.67,6.29c0.33,0.22,1.11,0.39,2.34,0.5c0.06,0.06,0.11,0.22,0.11,0.44 c0,0.11-0.06,0.28-0.06,0.28H101.52z"></path> <path d="M132.78,34.6c0.06,0,0.06,0.17,0.06,0.33c0,0.22,0,0.39-0.11,0.39c-1.17,0.11-1.56,0.22-1.95,0.5 c-0.28,0.17-0.39,1.11-0.39,6.23v0.22c-1.67,1-4.51,1.67-7.01,1.67c-6.12,0-11.13-4.45-11.13-9.74c0-5.12,4.12-10.18,11.02-10.18 c2.84,0,4.78,0.83,5.95,0.83c0.17,0,0.28,0,0.39-0.06c0.17,0,0.22,0.06,0.22,0.11c0.06,1.06,0.17,2.89,0.17,4.51 c0,0.06-0.17,0.06-0.33,0.06c-0.22,0-0.45,0-0.45-0.11c-0.11-0.83-0.67-1.89-1.28-2.45c-1.11-1.06-3.12-1.78-5.17-1.78 c-4.9,0-7.46,3.73-7.46,8.23c0,4.95,3.28,9.35,9.07,9.35c1.39,0,2.39-0.22,3.28-0.61c-0.06-5.45-0.22-6.12-0.5-6.29 c-0.33-0.17-1.11-0.39-2.34-0.5c-0.06,0-0.11-0.17-0.11-0.33s0.06-0.39,0.11-0.39H132.78z"></path> <path d="M147.86,43.22c-0.22,0.33-0.56,0.56-1.33,0.56c-1.89,0-4.12-0.11-6.68-0.11c-2,0-3.45,0-5.67,0.06 c0,0-0.06-0.17-0.06-0.28c0-0.22,0.06-0.39,0.11-0.44c1.22-0.11,1.72-0.28,2.11-0.5c0.39-0.17,0.61-0.83,0.61-6.29v-4.4 c0-5.45-0.22-6.12-0.61-6.29c-0.39-0.22-0.89-0.39-2.11-0.56c-0.06,0-0.11-0.28-0.11-0.44c0-0.11,0.06-0.22,0.06-0.22h8.34 c0,0,0.06,0.11,0.06,0.22c0,0.17-0.06,0.44-0.11,0.44c-1.22,0.17-1.72,0.33-2.11,0.56c-0.39,0.17-0.61,0.83-0.61,6.29v4.4 c0,3.62,0.28,5.29,0.67,5.73c0.33,0.33,0.78,0.56,2.56,0.56c1.72,0,2.89-0.44,3.62-1.28c0.67-0.78,1.17-2.06,1.39-3 c0-0.06,0.11-0.06,0.22-0.06c0.22,0,0.56,0.06,0.56,0.17C148.58,39.89,148.13,42.78,147.86,43.22z"></path> <path d="M163.38,43.22c-0.22,0.33-0.39,0.56-1.17,0.56c-1.89,0-4.12-0.11-6.68-0.11c-2,0-3.23,0-5.4,0.06 c-0.06,0-0.11-0.17-0.11-0.33s0.06-0.33,0.11-0.39c1.22-0.11,1.78-0.28,2.11-0.5c0.39-0.17,0.67-0.89,0.67-6.34v-4.34 c0-5.45-0.28-6.18-0.67-6.34c-0.33-0.22-0.89-0.39-2.11-0.56c-0.06,0-0.11-0.17-0.11-0.33c0-0.17,0.06-0.33,0.11-0.33 c2.39,0.06,6.17,0.06,8.18,0.06c2.67,0,4.01-0.11,5.01-0.11c0.11,0,0.11,0.06,0.11,0.11c-0.11,1-0.17,2.45-0.33,4.01 c0,0.06-0.17,0.11-0.33,0.11c-0.22,0-0.45-0.06-0.45-0.17c0-0.78-0.17-1.5-0.61-2c-0.5-0.5-1.39-0.78-3.56-0.78 c-1.22,0-2.06,0.06-2.39,0.06c-0.11,0.33-0.11,1.34-0.11,3.23v4.23h2.28c2.95,0,3.34-0.67,3.5-1.72c0-0.06,0.22-0.06,0.39-0.06 s0.39,0,0.39,0.06c-0.06,0.83-0.17,4.4-0.17,5.17c0,0.06-0.22,0.11-0.39,0.11c-0.22,0-0.39-0.06-0.39-0.11 c0-0.56-0.11-1.33-0.44-1.61c-0.28-0.22-0.72-0.56-2.95-0.56h-2.22v1.89c0,3.62,0.28,5.34,0.67,5.79 c0.39,0.33,0.78,0.56,2.62,0.56c1.89,0,2.95-0.44,3.5-1.06c0.44-0.44,0.78-1.06,1-2.06c0-0.06,0.11-0.06,0.17-0.06 c0.17,0,0.45,0.11,0.39,0.17C163.88,41.05,163.6,42.78,163.38,43.22z"></path> <path d="M172,43.95c-2.89,0-4.9-1.45-4.95-1.78c-0.11-0.56-0.17-1.28-0.17-2.11c0-0.72,0.06-1.45,0.11-2.17 c0-0.06,0.17-0.11,0.39-0.11c0.17,0,0.33,0.06,0.33,0.11c0.11,1.17,0.56,2.23,1,2.89c0.89,1.17,2.06,2,3.84,2 c2.22,0,3.34-1.45,3.34-3.5c0-4.4-8.18-5.06-8.18-10.01c0-3.06,2.89-5.23,5.73-5.23c2.39,0,2.95,0.56,4.12,0.56 c0.11,0,0.17,0.06,0.17,0.11c-0.06,0.56-0.06,1.17-0.06,1.89v2.28c0,0.06-0.22,0.11-0.39,0.11s-0.39-0.06-0.39-0.11 c-0.06-0.95-0.5-2.11-1-2.61c-0.67-0.67-1.78-1.06-2.73-1.06c-1.72,0-3,1.17-3,3c0,3.73,8.46,5.06,8.46,9.96 C178.62,41.89,175.11,43.95,172,43.95z"></path> <path d="M234.52,40.72c-2.11,2.06-4.45,3-8.34,3c-1.39,0-3.56-0.06-4.73-0.06c-1.11,0-2.78,0.06-4.12,0.06 c-0.06,0-0.11-0.17-0.11-0.33s0.06-0.33,0.11-0.39c1.22-0.11,1.72-0.28,2.11-0.5c0.39-0.17,0.67-0.89,0.67-6.34v-4.34 c0-5.45-0.28-6.18-0.67-6.34c-0.39-0.22-0.89-0.39-2.11-0.56c-0.06,0-0.11-0.17-0.11-0.33c0-0.17,0.06-0.33,0.11-0.33 c1.33,0,3,0.06,4.12,0.06c1.17,0,4.01-0.06,5.34-0.06c6.23,0,10.9,4.12,10.9,9.51C237.7,36.33,236.42,38.88,234.52,40.72z M225.9,25.37c-1.89,0-2.39,0.28-2.62,0.56c-0.17,0.22-0.44,1.67-0.44,5.79v4.45c0,3.62,0.28,5.23,0.67,5.67 c0.56,0.56,1,0.72,2.62,0.72c6.01,0,8.57-2.67,8.57-8.29C234.69,29.71,231.74,25.37,225.9,25.37z"></path> <path d="M253.22,43.22c-0.22,0.33-0.39,0.56-1.17,0.56c-1.89,0-4.12-0.11-6.68-0.11c-2,0-3.23,0-5.4,0.06 c-0.06,0-0.11-0.17-0.11-0.33s0.06-0.33,0.11-0.39c1.22-0.11,1.78-0.28,2.11-0.5c0.39-0.17,0.67-0.89,0.67-6.34v-4.34 c0-5.45-0.28-6.18-0.67-6.34c-0.33-0.22-0.89-0.39-2.11-0.56c-0.06,0-0.11-0.17-0.11-0.33c0-0.17,0.06-0.33,0.11-0.33 c2.39,0.06,6.17,0.06,8.18,0.06c2.67,0,4.01-0.11,5.01-0.11c0.11,0,0.11,0.06,0.11,0.11c-0.11,1-0.17,2.45-0.33,4.01 c0,0.06-0.17,0.11-0.33,0.11c-0.22,0-0.45-0.06-0.45-0.17c0-0.78-0.17-1.5-0.61-2c-0.5-0.5-1.39-0.78-3.56-0.78 c-1.22,0-2.06,0.06-2.39,0.06c-0.11,0.33-0.11,1.34-0.11,3.23v4.23h2.28c2.95,0,3.34-0.67,3.5-1.72c0-0.06,0.22-0.06,0.39-0.06 s0.39,0,0.39,0.06c-0.06,0.83-0.17,4.4-0.17,5.17c0,0.06-0.22,0.11-0.39,0.11c-0.22,0-0.39-0.06-0.39-0.11 c0-0.56-0.11-1.33-0.44-1.61c-0.28-0.22-0.72-0.56-2.95-0.56h-2.22v1.89c0,3.62,0.28,5.34,0.67,5.79 c0.39,0.33,0.78,0.56,2.62,0.56c1.89,0,2.95-0.44,3.5-1.06c0.44-0.44,0.78-1.06,1-2.06c0-0.06,0.11-0.06,0.17-0.06 c0.17,0,0.45,0.11,0.39,0.17C253.72,41.05,253.44,42.78,253.22,43.22z"></path> <path d="M60.55,56.57c0.04,0,0.08,0.2,0.08,0.4s-0.04,0.44-0.12,0.44c-1.55,0.16-2.55,0.28-3.03,0.56 c-0.52,0.28-0.84,1.35-0.84,8.6v10.67c0,6.97-1.35,10.12-8.28,13.34l-0.12,0.04c-0.16,0-0.32-0.24-0.32-0.44 c0-0.04,0-0.08,0.04-0.12c3.5-2.55,5.34-4.26,5.34-12.7V66.57c0-7.25-0.36-8.32-0.84-8.6s-1.51-0.4-3.07-0.56 c-0.08-0.04-0.12-0.28-0.12-0.48c0-0.2,0.04-0.36,0.08-0.36H60.55z"></path> <path d="M79.35,62.07c0,0.08-0.16,0.08-0.32,0.08c-0.24,0-0.56-0.04-0.56-0.2c0-0.96-0.28-2.07-0.92-2.71 c-0.8-0.88-1.79-1.19-4.06-1.19c-1.55,0-3.03,0-3.39,0.08c-0.12,0.4-0.16,1.87-0.16,4.38v5.73h3.27c3.78,0,3.9-1.08,4.14-2.51 c0-0.08,0.2-0.12,0.4-0.12c0.24,0,0.48,0.04,0.48,0.12l-0.24,7.17c0,0.04-0.2,0.08-0.4,0.08c-0.24,0-0.48-0.04-0.48-0.12 c0-0.72-0.2-2.07-0.56-2.47c-0.36-0.36-0.56-0.6-3.39-0.6h-3.23v2.67c0,5.14,0.24,7.49,0.6,7.85s1.59,0.52,3.94,0.52 c2.47,0,3.39-0.6,4.1-1.35c0.48-0.52,0.96-1.67,1.31-3.19c0-0.08,0.12-0.08,0.24-0.08c0.28,0,0.64,0.12,0.64,0.24 c-0.2,2.51-0.64,5.42-0.68,5.5c-0.2,0.24-1.39,0.56-3.07,0.56c-2.39,0-3.62-0.12-6.93-0.12c-2.59,0-4.5,0.04-7.33,0.08 c-0.04,0-0.08-0.16-0.08-0.36s0.04-0.52,0.12-0.56c1.55-0.16,2.47-0.28,2.95-0.56s0.84-1.35,0.84-8.6v-5.81 c0-7.25-0.36-8.4-0.84-8.68s-1.39-0.4-2.95-0.56c-0.08-0.04-0.12-0.28-0.12-0.48c0-0.2,0.04-0.36,0.08-0.36 c1.79,0.04,4.26,0.08,6.53,0.08h4.38c3.34,0,4.66-0.04,5.85-0.2c0.2,0,0.24,0.08,0.24,0.16C79.71,57.93,79.59,59.92,79.35,62.07z"></path> <path d="M90.94,82.94c-3.3,0-6.01-1.47-6.37-1.99c-0.04-0.08-0.28-2.75-0.28-4.86c0-0.52,0-1,0.04-1.39 c0-0.12,0.24-0.16,0.48-0.16c0.2,0,0.44,0.04,0.44,0.16c0.08,1.51,0.84,3.54,1.39,4.38c1,1.51,2.71,2.51,5.14,2.51 c2.75,0,4.26-1.83,4.26-4.7c0-6.29-10.47-6.61-10.47-13.86c0-3.78,3.07-7.01,7.25-7.01c2.75,0,3.35,0.76,4.7,0.76 c0.16,0,0.32-0.04,0.56-0.04c0.12,0,0.16,0.04,0.16,0.12c0.04,0.92,0.04,2.27,0.04,3.7c0,0.72,0,1.47-0.04,2.19 c0,0.04-0.16,0.08-0.36,0.08c-0.24,0-0.52-0.04-0.56-0.16c-0.12-1.59-0.48-2.99-1.23-3.86c-0.88-0.96-1.99-1.55-3.7-1.55 c-2.15,0-3.78,1.87-3.78,4.34c0,5.38,10.63,6.69,10.63,13.58C99.22,80.15,94.96,82.94,90.94,82.94z"></path> <path d="M128.85,57.05c0,0.16-0.04,0.36-0.12,0.36c-1.55,0.16-2.35,0.28-2.79,0.68c-0.32,0.28-0.68,1.23-0.68,8.48v6.69 c0,4.78-3.66,9.36-10.47,9.36c-6.21,0-10-4.1-10-9.28v-6.77c0-7.25-0.36-8.32-0.84-8.6c-0.52-0.28-1.19-0.4-2.75-0.56 c-0.08-0.04-0.12-0.28-0.12-0.48c0-0.2,0.04-0.36,0.08-0.36h10.75c0.04,0,0.08,0.16,0.08,0.36c0,0.2-0.04,0.44-0.12,0.48 c-1.55,0.16-2.39,0.28-2.91,0.56c-0.48,0.28-0.84,1.35-0.84,8.6v6.05c0,4.38,2.75,8,8,8c4.9,0,7.33-3.7,7.33-7.57v-6.49 c0-7.25-0.4-8.2-0.72-8.48c-0.44-0.4-1.35-0.52-2.95-0.68c-0.08,0-0.12-0.2-0.12-0.4c0-0.2,0.04-0.44,0.12-0.44h8.92 C128.82,56.57,128.85,56.81,128.85,57.05z"></path> <path d="M152.28,63.9c-0.24,0-0.48-0.08-0.52-0.2c-0.16-1.63-0.68-2.99-1.63-4.02c-1.2-1.23-3.7-2.27-6.37-2.27 c-6.93,0-9.64,5.58-9.64,11.23c0,6.49,4.1,12.74,10.2,12.74c2.95,0,4.86-0.84,6.21-2.51c0.84-1.04,1.31-2.23,1.67-3.42 c0-0.08,0.12-0.12,0.24-0.12c0.28,0,0.64,0.12,0.64,0.24c-0.12,1.67-0.84,5.38-0.92,5.5c-0.12,0.2-2.79,1.87-7.93,1.87 c-8.48,0-13.86-5.93-13.86-13.14c0-6.81,4.9-13.78,13.78-13.78c4.06,0,6.29,1.23,7.73,1.23c0.16,0,0.32-0.04,0.44-0.04 c0.16,0,0.24,0.08,0.24,0.16l0.12,6.41C152.67,63.86,152.48,63.9,152.28,63.9z"></path> <path d="M202.7,82.94c-3.3,0-6.01-1.47-6.37-1.99c-0.04-0.08-0.28-2.75-0.28-4.86c0-0.52,0-1,0.04-1.39 c0-0.12,0.24-0.16,0.48-0.16c0.2,0,0.44,0.04,0.44,0.16c0.08,1.51,0.84,3.54,1.39,4.38c1,1.51,2.71,2.51,5.14,2.51 c2.75,0,4.26-1.83,4.26-4.7c0-6.29-10.47-6.61-10.47-13.86c0-3.78,3.07-7.01,7.25-7.01c2.75,0,3.35,0.76,4.7,0.76 c0.16,0,0.32-0.04,0.56-0.04c0.12,0,0.16,0.04,0.16,0.12c0.04,0.92,0.04,2.27,0.04,3.7c0,0.72,0,1.47-0.04,2.19 c0,0.04-0.16,0.08-0.36,0.08c-0.24,0-0.52-0.04-0.56-0.16c-0.12-1.59-0.48-2.99-1.23-3.86c-0.88-0.96-1.99-1.55-3.7-1.55 c-2.15,0-3.78,1.87-3.78,4.34c0,5.38,10.63,6.69,10.63,13.58C210.98,80.15,206.72,82.94,202.7,82.94z"></path> <path d="M236,62.9c0,0.08-0.2,0.16-0.4,0.16c-0.24,0-0.48-0.08-0.48-0.24c0-1-0.12-2.91-0.8-3.62c-0.8-0.84-2.43-1.51-5.93-1.51 c-0.92,0-1.39,0-1.79,0.08c-0.12,0.4-0.16,2.31-0.16,4.82v9.8c0,7.25,0.36,8.32,0.84,8.6c0.48,0.28,1.47,0.4,3.07,0.56 c0.08,0.04,0.12,0.28,0.12,0.48c0,0.2-0.04,0.36-0.08,0.36h-11.23c-0.04,0-0.08-0.16-0.08-0.32c0-0.24,0.04-0.48,0.16-0.52 c1.55-0.16,2.55-0.28,3.03-0.56c0.52-0.28,0.84-1.35,0.84-8.6v-9.8c0-2.51-0.04-4.42-0.16-4.82c-0.4-0.08-1.08-0.08-1.99-0.08 c-3.74,0-5.02,0.4-5.93,1.51c-0.64,0.76-1.04,2.15-1.31,3.7c0,0.12-0.16,0.16-0.32,0.16c-0.24,0-0.56-0.08-0.56-0.24 c0.24-2.07,0.48-5.1,0.6-6.45c0-0.08,0.12-0.16,0.32-0.16h0.16c1.39,0.24,3.94,0.36,10.87,0.36c9.52,0,10.39-0.2,11.11-0.44 c0.04,0,0.12-0.04,0.16-0.04c0.16,0,0.28,0.12,0.28,0.2C236.31,57.81,236.23,60.79,236,62.9z"></path> <path d="M250.61,82.94c-7.29,0-13.06-5.93-13.06-13.14c0-7.13,5.5-13.78,13.66-13.78c7.29,0,13.06,5.93,13.06,13.14 C264.27,76.29,258.78,82.94,250.61,82.94z M250.42,57.45c-6.97,0-9.24,6.05-9.24,11.19c0,6.49,3.98,12.86,10.24,12.86 c6.97,0,9.24-6.05,9.24-11.19C260.65,63.82,256.63,57.45,250.42,57.45z"></path> <path d="M78.78,99.73c0-3.08-0.22-3.41-0.48-3.52c-0.26-0.15-0.59-0.26-1.41-0.37c-0.07,0-0.07-0.11-0.07-0.22s0-0.41,0.04-0.41 h0.26c0.45,0,1.82,0.07,2.86,0.07c1.56,0,3.23-0.11,4.04-0.11c4.49,0,7.19,2.82,7.19,6.42c0,1.71-0.82,3.37-2.08,4.6 c-1.41,1.37-3.11,2.11-5.71,2.11c-0.74,0-1.89-0.11-2.71-0.11c-1.37,0-2.93,0.04-3.86,0.04c-0.04,0-0.04-0.26-0.04-0.37 c0-0.11,0-0.22,0.07-0.26c0.82-0.07,1.22-0.22,1.48-0.37c0.26-0.11,0.41-0.41,0.41-4.04V99.73z M81.08,99.29v4.38 c0,2.04,0.19,2.86,0.45,3.11c0.37,0.37,0.78,0.48,1.85,0.48c3.23,0,5.15-1.59,5.15-5.34c0-3.04-1.71-5.75-5.01-5.75 c-1.56,0-2,0.22-2.15,0.41C81.26,96.73,81.08,97.29,81.08,99.29z"></path> <path d="M97.24,98.99v1.93h1.45c1.96,0,2.22-0.52,2.34-1.22c0-0.04,0.15-0.04,0.26-0.04s0.33,0,0.33,0.04 c-0.04,0.56-0.11,3.15-0.11,3.67c0,0.04-0.22,0.07-0.33,0.07c-0.15,0-0.26-0.04-0.26-0.07c0-0.37-0.07-0.89-0.3-1.08 c-0.19-0.15-0.48-0.37-1.96-0.37h-1.41v2.15c0,1.74,0.19,2.52,0.45,2.82c0.26,0.22,0.52,0.37,1.74,0.37c1.26,0,1.97-0.3,2.34-0.7 c0.3-0.3,0.52-0.93,0.67-1.59c0-0.04,0.26-0.04,0.3-0.04c0.11,0,0.3,0.07,0.26,0.11c-0.07,1.04-0.26,2.56-0.41,2.86 c-0.15,0.22-0.26,0.41-0.78,0.41c-1.26,0-2.6-0.11-5.3-0.11c-0.74,0-3.23,0.07-3.56,0.07c-0.04,0-0.04-0.26-0.04-0.37 c0-0.11,0-0.26,0.07-0.3c0.82-0.07,1.3-0.22,1.56-0.37c0.26-0.11,0.41-0.41,0.41-4.04v-2.89c0-3.63-0.15-3.93-0.41-4.04 c-0.26-0.15-0.74-0.3-1.56-0.41c-0.07,0-0.07-0.15-0.07-0.26s0.04-0.41,0.07-0.41h0.48c1.37,0,2.74,0.11,4.12,0.11 c1,0,3.26-0.11,4.49-0.11c0.15,0,0.33,0.04,0.37,0.15c-0.07,0.67-0.11,1.78-0.22,2.82c0,0.04-0.3,0.07-0.41,0.07 c-0.15,0-0.3-0.04-0.3-0.11c0-0.52-0.11-1.08-0.41-1.41c-0.33-0.33-0.93-0.48-2.37-0.48c-0.82,0-1.19,0.04-1.41,0.04 C97.24,96.47,97.24,97.92,97.24,98.99z"></path> <path d="M117.52,95.58c0,0.11-0.04,0.3-0.07,0.3c-0.82,0.11-1.15,0.22-1.41,0.37c-0.26,0.11-0.45,0.41-0.45,4.04v3.6 c0,2.82,0,3.37,1.85,3.37c1.15,0,2.23-0.15,2.71-0.7c0.45-0.52,0.74-1.37,0.89-2c0-0.04,0.3-0.04,0.37-0.04 c0.15,0,0.37,0.04,0.37,0.11c-0.11,1.04-0.41,2.97-0.59,3.26c-0.15,0.22-0.37,0.41-0.89,0.41c-1,0-3.04-0.11-4.49-0.11 c-1.48,0-3.26,0.07-4.52,0.11c-0.04,0-0.04-0.22-0.04-0.33c0-0.11,0-0.33,0.07-0.37c0.82-0.07,1.3-0.22,1.56-0.37 c0.26-0.11,0.41-0.41,0.41-4.04v-2.89c0-3.63-0.15-3.93-0.41-4.04c-0.26-0.15-0.74-0.26-1.56-0.37c-0.07,0-0.07-0.11-0.07-0.22 s0-0.37,0.04-0.37h6.19C117.49,95.29,117.52,95.51,117.52,95.58z"></path> <path d="M130.21,108.37c-4.08,0-7.04-2.93-7.04-6.56c0-3.45,2.97-6.71,7.3-6.71c4.08,0,7.04,2.82,7.04,6.45 C137.51,105,134.54,108.37,130.21,108.37z M130.06,96.1c-3.26,0-4.23,2.86-4.23,5.19c0,3.04,1.74,6.08,4.78,6.08 c3.26,0,4.23-2.97,4.23-5.3C134.84,99.03,133.06,96.1,130.06,96.1z"></path> <path d="M143.55,108.37c-1.93,0-3.56-0.96-3.6-1.19c-0.07-0.37-0.11-0.85-0.11-1.41c0-0.48,0.04-1.41,0.07-1.89 c0-0.04,0.18-0.07,0.33-0.07c0.11,0,0.33,0.04,0.33,0.07c0.07,0.78,0.37,1.71,0.67,2.15c0.59,0.78,1.3,1.33,2.48,1.33 c1.22,0,2.23-0.74,2.23-2.11c0-2.93-5.79-3.37-5.79-6.67c0-2.04,1.74-3.49,4.34-3.49c1.59,0,2.34,0.37,3.11,0.37 c0.07,0,0.15,0.04,0.15,0.07c-0.04,0.37-0.04,0.78-0.04,1.26v1.74c0,0.04-0.19,0.07-0.3,0.07s-0.41-0.04-0.41-0.07 c-0.04-0.63-0.33-1.41-0.67-1.74c-0.44-0.45-1.41-0.71-2.04-0.71c-0.82,0-1.78,0.56-1.78,1.78c0,2.48,5.79,3.37,5.79,6.64 C148.34,107,146.3,108.37,143.55,108.37z"></path> <path d="M160.35,108.37c-1.93,0-3.56-0.96-3.6-1.19c-0.07-0.37-0.11-0.85-0.11-1.41c0-0.48,0.04-1.41,0.07-1.89 c0-0.04,0.18-0.07,0.33-0.07c0.11,0,0.33,0.04,0.33,0.07c0.07,0.78,0.37,1.71,0.67,2.15c0.59,0.78,1.3,1.33,2.48,1.33 c1.22,0,2.23-0.74,2.23-2.11c0-2.93-5.79-3.37-5.79-6.67c0-2.04,1.74-3.49,4.34-3.49c1.59,0,2.34,0.37,3.11,0.37 c0.07,0,0.15,0.04,0.15,0.07c-0.04,0.37-0.04,0.78-0.04,1.26v1.74c0,0.04-0.19,0.07-0.3,0.07s-0.41-0.04-0.41-0.07 c-0.04-0.63-0.33-1.41-0.67-1.74c-0.44-0.45-1.41-0.71-2.04-0.71c-0.82,0-1.78,0.56-1.78,1.78c0,2.48,5.79,3.37,5.79,6.64 C165.13,107,163.09,108.37,160.35,108.37z"></path> <path d="M205.48,107.22c0.26,0.15,0.67,0.26,1.48,0.33c0.04,0.04,0.07,0.15,0.07,0.3c0,0.07-0.04,0.33-0.04,0.33h-6.19 c-0.04,0-0.04-0.26-0.04-0.37c0-0.11,0-0.22,0.07-0.26c0.82-0.07,1.22-0.19,1.48-0.33c0.26-0.11,0.41-0.41,0.41-4.04v-4.38 c0-1.26,0-2.34-0.07-2.56c-0.19,0-0.56-0.04-1-0.04c-2.11,0-2.52,0.3-3,0.74c-0.33,0.3-0.52,1.11-0.63,1.59 c0,0.04-0.04,0.04-0.11,0.04c-0.15,0-0.59-0.07-0.59-0.11l0.3-3.34c0-0.04,0.07-0.15,0.15-0.15c0.74,0.11,2.6,0.3,6.16,0.3 c4.89,0,5.82-0.19,6.19-0.33c0.07,0,0.15,0.11,0.15,0.15c0,0.78-0.04,2.37-0.18,3.45c0,0-0.3,0.04-0.41,0.04 c-0.15,0-0.3-0.04-0.3-0.07c0-0.52-0.11-1.26-0.37-1.56c-0.37-0.41-0.74-0.74-2.97-0.74c-0.45,0-0.7,0.04-0.89,0.04 c-0.07,0.22-0.11,1.3-0.11,2.56v4.38C205.03,106.82,205.22,107.11,205.48,107.22z"></path> <path d="M218.45,108.37c-4.08,0-7.04-2.93-7.04-6.56c0-3.45,2.97-6.71,7.3-6.71c4.08,0,7.04,2.82,7.04,6.45 C225.76,105,222.79,108.37,218.45,108.37z M218.3,96.1c-3.26,0-4.23,2.86-4.23,5.19c0,3.04,1.74,6.08,4.78,6.08 c3.26,0,4.23-2.97,4.23-5.3C223.09,99.03,221.31,96.1,218.3,96.1z"></path> <path d="M231.8,108.37c-1.93,0-3.56-0.96-3.6-1.19c-0.07-0.37-0.11-0.85-0.11-1.41c0-0.48,0.04-1.41,0.07-1.89 c0-0.04,0.18-0.07,0.33-0.07c0.11,0,0.33,0.04,0.33,0.07c0.07,0.78,0.37,1.71,0.67,2.15c0.59,0.78,1.3,1.33,2.48,1.33 c1.22,0,2.23-0.74,2.23-2.11c0-2.93-5.79-3.37-5.79-6.67c0-2.04,1.74-3.49,4.34-3.49c1.59,0,2.34,0.37,3.11,0.37 c0.07,0,0.15,0.04,0.15,0.07c-0.04,0.37-0.04,0.78-0.04,1.26v1.74c0,0.04-0.19,0.07-0.3,0.07s-0.41-0.04-0.41-0.07 c-0.04-0.63-0.33-1.41-0.67-1.74c-0.44-0.45-1.41-0.71-2.04-0.71c-0.82,0-1.78,0.56-1.78,1.78c0,2.48,5.79,3.37,5.79,6.64 C236.58,107,234.54,108.37,231.8,108.37z"></path> <path d="M45.22,123.38c0-3.08-0.22-3.41-0.48-3.52c-0.26-0.15-0.59-0.26-1.41-0.37c-0.07,0-0.07-0.11-0.07-0.22s0-0.41,0.04-0.41 h0.26c0.45,0,1.82,0.07,2.86,0.07c1.56,0,3.23-0.11,4.04-0.11c4.49,0,7.19,2.82,7.19,6.41c0,1.71-0.82,3.37-2.08,4.6 c-1.41,1.37-3.11,2.11-5.71,2.11c-0.74,0-1.89-0.11-2.71-0.11c-1.37,0-2.93,0.04-3.86,0.04c-0.04,0-0.04-0.26-0.04-0.37 s0-0.22,0.07-0.26c0.82-0.07,1.22-0.22,1.48-0.37c0.26-0.11,0.41-0.41,0.41-4.04V123.38z M47.52,122.94v4.38 c0,2.04,0.19,2.85,0.45,3.11c0.37,0.37,0.78,0.48,1.85,0.48c3.23,0,5.15-1.59,5.15-5.34c0-3.04-1.71-5.75-5.01-5.75 c-1.56,0-2,0.22-2.15,0.41C47.71,120.38,47.52,120.94,47.52,122.94z"></path> <path d="M63.69,122.64v1.93h1.45c1.96,0,2.22-0.52,2.34-1.22c0-0.04,0.15-0.04,0.26-0.04s0.33,0,0.33,0.04 c-0.04,0.56-0.11,3.15-0.11,3.67c0,0.04-0.22,0.07-0.33,0.07c-0.15,0-0.26-0.04-0.26-0.07c0-0.37-0.07-0.89-0.3-1.08 c-0.19-0.15-0.48-0.37-1.96-0.37h-1.41v2.15c0,1.74,0.19,2.52,0.45,2.82c0.26,0.22,0.52,0.37,1.74,0.37c1.26,0,1.97-0.3,2.34-0.71 c0.3-0.3,0.52-0.93,0.67-1.59c0-0.04,0.26-0.04,0.3-0.04c0.11,0,0.3,0.07,0.26,0.11c-0.07,1.04-0.26,2.56-0.41,2.86 c-0.15,0.22-0.26,0.41-0.78,0.41c-1.26,0-2.6-0.11-5.3-0.11c-0.74,0-3.23,0.07-3.56,0.07c-0.04,0-0.04-0.26-0.04-0.37 s0-0.26,0.07-0.3c0.82-0.07,1.3-0.22,1.56-0.37c0.26-0.11,0.41-0.41,0.41-4.04v-2.89c0-3.63-0.15-3.93-0.41-4.04 c-0.26-0.15-0.74-0.3-1.56-0.41c-0.07,0-0.07-0.15-0.07-0.26s0.04-0.41,0.07-0.41h0.48c1.37,0,2.74,0.11,4.12,0.11 c1,0,3.26-0.11,4.49-0.11c0.15,0,0.33,0.04,0.37,0.15c-0.07,0.67-0.11,1.78-0.22,2.82c0,0.04-0.3,0.07-0.41,0.07 c-0.15,0-0.3-0.04-0.3-0.11c0-0.52-0.11-1.08-0.41-1.41c-0.33-0.33-0.93-0.48-2.37-0.48c-0.82,0-1.19,0.04-1.41,0.04 C63.69,120.12,63.69,121.57,63.69,122.64z"></path> <path d="M83.97,119.23c0,0.11-0.04,0.3-0.07,0.3c-0.82,0.11-1.15,0.22-1.41,0.37c-0.26,0.11-0.45,0.41-0.45,4.04v3.6 c0,2.82,0,3.37,1.85,3.37c1.15,0,2.23-0.15,2.71-0.71c0.45-0.52,0.74-1.37,0.89-2c0-0.04,0.3-0.04,0.37-0.04 c0.15,0,0.37,0.04,0.37,0.11c-0.11,1.04-0.41,2.97-0.59,3.26c-0.15,0.22-0.37,0.41-0.89,0.41c-1,0-3.04-0.11-4.49-0.11 c-1.48,0-3.26,0.07-4.52,0.11c-0.04,0-0.04-0.22-0.04-0.33s0-0.33,0.07-0.37c0.82-0.07,1.3-0.22,1.56-0.37 c0.26-0.11,0.41-0.41,0.41-4.04v-2.89c0-3.63-0.15-3.93-0.41-4.04c-0.26-0.15-0.74-0.26-1.56-0.37c-0.07,0-0.07-0.11-0.07-0.22 s0-0.37,0.04-0.37h6.19C83.93,118.94,83.97,119.16,83.97,119.23z"></path> <path d="M96.65,132.02c-4.08,0-7.04-2.93-7.04-6.56c0-3.45,2.97-6.71,7.3-6.71c4.08,0,7.04,2.82,7.04,6.45 C103.95,128.65,100.99,132.02,96.65,132.02z M96.5,119.75c-3.26,0-4.23,2.86-4.23,5.19c0,3.04,1.74,6.08,4.78,6.08 c3.26,0,4.23-2.97,4.23-5.3C101.28,122.68,99.51,119.75,96.5,119.75z"></path> <path d="M110,132.02c-1.93,0-3.56-0.96-3.6-1.19c-0.07-0.37-0.11-0.85-0.11-1.41c0-0.48,0.04-1.41,0.07-1.89 c0-0.04,0.18-0.07,0.33-0.07c0.11,0,0.33,0.04,0.33,0.07c0.07,0.78,0.37,1.71,0.67,2.15c0.59,0.78,1.3,1.33,2.48,1.33 c1.22,0,2.23-0.74,2.23-2.11c0-2.93-5.79-3.37-5.79-6.67c0-2.04,1.74-3.49,4.34-3.49c1.59,0,2.34,0.37,3.11,0.37 c0.07,0,0.15,0.04,0.15,0.07c-0.04,0.37-0.04,0.78-0.04,1.26v1.74c0,0.04-0.19,0.07-0.3,0.07s-0.41-0.04-0.41-0.07 c-0.04-0.63-0.33-1.41-0.67-1.74c-0.44-0.44-1.41-0.7-2.04-0.7c-0.82,0-1.78,0.56-1.78,1.78c0,2.48,5.79,3.38,5.79,6.64 C114.78,130.65,112.74,132.02,110,132.02z"></path> <path d="M135.73,119.9c-0.11,0.11-0.22,0.96-0.22,3.52v3.78c0,2.41-1.78,4.82-5.45,4.82s-5.56-2.15-5.56-4.78v-3.34 c0-3.52-0.15-3.93-0.22-3.97c-0.3-0.19-0.67-0.33-1.41-0.41c-0.22,0-0.22-0.11-0.22-0.3c0-0.15,0.04-0.3,0.26-0.3h5.56 c0.22,0,0.22,0.04,0.22,0.3c0,0.19-0.04,0.3-0.22,0.3c-0.74,0.11-1.15,0.26-1.45,0.45c-0.04,0.04-0.22,0.41-0.22,3.93v2.97 c0,2.37,1.45,3.89,3.74,3.89c2.23,0,3.6-1.56,3.6-3.67v-3.67c0-2.71-0.18-3.41-0.3-3.52c-0.19-0.19-0.56-0.26-1.22-0.37 c-0.33,0-0.33-0.11-0.33-0.26s0-0.33,0.33-0.33h4.38c0.22,0,0.22,0.18,0.22,0.33c0,0.19-0.11,0.26-0.33,0.26 C136.21,119.6,135.95,119.71,135.73,119.9z M132.32,114.34c0.26,0.44,0.67,1.3,0.67,1.41c0,0.15-0.11,0.26-0.3,0.26 c-0.74,0-1.52,0.15-2.3,0.41l-1.08,0.33c-0.48,0.15-0.67,0.26-1.04,0.26c-0.26,0-0.33-0.15-0.33-0.3c0-0.15,0.04-0.3,0.22-0.41 l3.3-2.11c0.15-0.11,0.33-0.19,0.41-0.19C132.02,114,132.17,114.12,132.32,114.34z"></path> <path d="M144.85,119.23c0,0.11-0.04,0.3-0.07,0.3c-0.82,0.11-1.15,0.22-1.41,0.37c-0.26,0.11-0.45,0.41-0.45,4.04v3.6 c0,2.82,0,3.37,1.85,3.37c1.15,0,2.23-0.15,2.71-0.71c0.45-0.52,0.74-1.37,0.89-2c0-0.04,0.3-0.04,0.37-0.04 c0.15,0,0.37,0.04,0.37,0.11c-0.11,1.04-0.41,2.97-0.59,3.26c-0.15,0.22-0.37,0.41-0.89,0.41c-1,0-3.04-0.11-4.49-0.11 c-1.48,0-3.26,0.07-4.52,0.11c-0.04,0-0.04-0.22-0.04-0.33s0-0.33,0.07-0.37c0.82-0.07,1.3-0.22,1.56-0.37 c0.26-0.11,0.41-0.41,0.41-4.04v-2.89c0-3.63-0.15-3.93-0.41-4.04c-0.26-0.15-0.74-0.26-1.56-0.37c-0.07,0-0.07-0.11-0.07-0.22 s0-0.37,0.04-0.37h6.19C144.81,118.94,144.85,119.16,144.85,119.23z"></path> <path d="M156.86,130.88c0.26,0.15,0.67,0.26,1.48,0.33c0.04,0.04,0.07,0.15,0.07,0.3c0,0.07-0.04,0.33-0.04,0.33h-6.19 c-0.04,0-0.04-0.26-0.04-0.37s0-0.22,0.07-0.26c0.82-0.07,1.22-0.19,1.48-0.33c0.26-0.11,0.41-0.41,0.41-4.04v-4.38 c0-1.26,0-2.34-0.07-2.56c-0.19,0-0.56-0.04-1-0.04c-2.11,0-2.52,0.3-3,0.74c-0.33,0.3-0.52,1.11-0.63,1.59 c0,0.04-0.04,0.04-0.11,0.04c-0.15,0-0.59-0.07-0.59-0.11l0.3-3.34c0-0.04,0.07-0.15,0.15-0.15c0.74,0.11,2.6,0.3,6.16,0.3 c4.89,0,5.82-0.19,6.19-0.33c0.07,0,0.15,0.11,0.15,0.15c0,0.78-0.04,2.37-0.19,3.45c0,0-0.3,0.04-0.41,0.04 c-0.15,0-0.3-0.04-0.3-0.07c0-0.52-0.11-1.26-0.37-1.56c-0.37-0.41-0.74-0.74-2.97-0.74c-0.45,0-0.71,0.04-0.89,0.04 c-0.07,0.22-0.11,1.3-0.11,2.56v4.38C156.42,130.47,156.61,130.76,156.86,130.88z"></path> <path d="M167.69,126.83c0,3.63,0.19,3.93,0.45,4.04c0.26,0.15,0.67,0.26,1.48,0.33c0.04,0.04,0.07,0.15,0.07,0.3 c0,0.07-0.04,0.33-0.04,0.33h-6.27c-0.04,0-0.04-0.26-0.04-0.37s0-0.22,0.07-0.26c0.82-0.07,1.3-0.19,1.56-0.33 c0.26-0.11,0.41-0.41,0.41-4.04v-2.89c0-3.63-0.22-3.93-0.48-4.04c-0.26-0.15-0.67-0.26-1.48-0.37c-0.07,0-0.07-0.11-0.07-0.22 s0-0.37,0.04-0.37h6.27c0,0,0.04,0.22,0.04,0.3c0,0.11-0.04,0.3-0.07,0.3c-0.82,0.11-1.22,0.22-1.48,0.37 c-0.26,0.11-0.45,0.41-0.45,4.04V126.83z"></path> <path d="M183.86,131.84c-0.04,0-0.15-0.15-0.15-0.3c0-0.11,0.04-0.33,0.07-0.33c0.56-0.04,1-0.11,1.22-0.26 c0.11-0.07,0.19-0.33,0.19-0.78c0-0.89-0.15-2.04-0.19-2.45l-0.48-4.34l-4.19,8.57c0,0.07-0.19,0.07-0.33,0.07 c-0.19,0-0.56,0-0.56-0.07l-4.63-8.97l-0.37,3.75c-0.15,1.37-0.19,2.26-0.19,2.89c0,1.22,0.41,1.52,1.71,1.59 c0.04,0,0.07,0.11,0.07,0.22s-0.04,0.41-0.07,0.41h-5.23c0,0-0.04-0.22-0.04-0.3c0-0.15,0.04-0.3,0.11-0.33 c0.82-0.07,1.26-0.19,1.48-0.37c0.15-0.11,0.48-0.37,0.82-4l0.26-2.89c0.15-1.67,0.33-3.56,0.41-5.12c0-0.04,0.41-0.11,0.59-0.11 c0.11,0,0.74,0.04,0.74,0.07l5.34,9.97l4.89-9.97c0.04-0.04,0.52-0.07,0.63-0.07c0.22,0,0.67,0.07,0.67,0.11 c0.11,1.74,0.22,3.3,0.45,5.12l0.33,2.89c0.41,3.63,0.56,3.93,0.78,4.04c0.26,0.15,0.63,0.26,1.45,0.33 c0.04,0.04,0.07,0.33,0.07,0.33c0,0.22-0.04,0.3-0.07,0.3H183.86z"></path> <path d="M197.84,132.02c-4.08,0-7.04-2.93-7.04-6.56c0-3.45,2.97-6.71,7.3-6.71c4.08,0,7.04,2.82,7.04,6.45 C205.14,128.65,202.18,132.02,197.84,132.02z M197.69,119.75c-3.26,0-4.23,2.86-4.23,5.19c0,3.04,1.74,6.08,4.78,6.08 c3.26,0,4.23-2.97,4.23-5.3C202.47,122.68,200.69,119.75,197.69,119.75z"></path> <path d="M211.19,132.02c-1.93,0-3.56-0.96-3.6-1.19c-0.07-0.37-0.11-0.85-0.11-1.41c0-0.48,0.04-1.41,0.07-1.89 c0-0.04,0.18-0.07,0.33-0.07c0.11,0,0.33,0.04,0.33,0.07c0.07,0.78,0.37,1.71,0.67,2.15c0.59,0.78,1.3,1.33,2.48,1.33 c1.22,0,2.23-0.74,2.23-2.11c0-2.93-5.79-3.37-5.79-6.67c0-2.04,1.74-3.49,4.34-3.49c1.59,0,2.34,0.37,3.11,0.37 c0.07,0,0.15,0.04,0.15,0.07c-0.04,0.37-0.04,0.78-0.04,1.26v1.74c0,0.04-0.19,0.07-0.3,0.07s-0.41-0.04-0.41-0.07 c-0.04-0.63-0.33-1.41-0.67-1.74c-0.44-0.44-1.41-0.7-2.04-0.7c-0.82,0-1.78,0.56-1.78,1.78c0,2.48,5.79,3.38,5.79,6.64 C215.97,130.65,213.93,132.02,211.19,132.02z"></path> <path d="M226.24,123.38c0-3.08-0.22-3.41-0.48-3.52c-0.26-0.15-0.59-0.26-1.41-0.37c-0.07,0-0.07-0.11-0.07-0.22s0-0.41,0.04-0.41 h0.26c0.45,0,1.82,0.07,2.86,0.07c1.56,0,3.23-0.11,4.04-0.11c4.49,0,7.19,2.82,7.19,6.41c0,1.71-0.82,3.37-2.08,4.6 c-1.41,1.37-3.11,2.11-5.71,2.11c-0.74,0-1.89-0.11-2.71-0.11c-1.37,0-2.93,0.04-3.86,0.04c-0.04,0-0.04-0.26-0.04-0.37 s0-0.22,0.07-0.26c0.82-0.07,1.22-0.22,1.48-0.37c0.26-0.11,0.41-0.41,0.41-4.04V123.38z M228.54,122.94v4.38 c0,2.04,0.19,2.85,0.45,3.11c0.37,0.37,0.78,0.48,1.85,0.48c3.23,0,5.15-1.59,5.15-5.34c0-3.04-1.71-5.75-5.01-5.75 c-1.56,0-2,0.22-2.15,0.41C228.72,120.38,228.54,120.94,228.54,122.94z"></path> <path d="M266.1,132.02c-1.93,0-3.56-0.96-3.6-1.19c-0.07-0.37-0.11-0.85-0.11-1.41c0-0.48,0.04-1.41,0.07-1.89 c0-0.04,0.18-0.07,0.33-0.07c0.11,0,0.33,0.04,0.33,0.07c0.07,0.78,0.37,1.71,0.67,2.15c0.59,0.78,1.3,1.33,2.48,1.33 c1.22,0,2.23-0.74,2.23-2.11c0-2.93-5.79-3.37-5.79-6.67c0-2.04,1.74-3.49,4.34-3.49c1.59,0,2.34,0.37,3.11,0.37 c0.07,0,0.15,0.04,0.15,0.07c-0.04,0.37-0.04,0.78-0.04,1.26v1.74c0,0.04-0.19,0.07-0.3,0.07s-0.41-0.04-0.41-0.07 c-0.04-0.63-0.33-1.41-0.67-1.74c-0.44-0.44-1.41-0.7-2.04-0.7c-0.82,0-1.78,0.56-1.78,1.78c0,2.48,5.79,3.38,5.79,6.64 C270.88,130.65,268.84,132.02,266.1,132.02z"></path> </g> <path d="M189.56,80.98c-0.48-0.28-0.84-1.35-0.84-8.6v-5.81c0-7.25,0.36-8.32,0.84-8.6c0.48-0.28,1.47-0.4,3.07-0.56 c0.08-0.04,0.12-0.28,0.12-0.48c0-0.2-0.04-0.36-0.08-0.36h-11.19c-0.08,0-0.12,0.16-0.12,0.36c0,0.2,0.04,0.44,0.16,0.48 c1.55,0.16,2.55,0.28,3.03,0.56c0.52,0.28,0.84,1.35,0.84,8.6v5.81c0,7.25-0.32,8.32-0.84,8.6c-0.21,0.12-0.53,0.21-0.94,0.29 c-0.7,0.12-0.96,0.11-1.49,0.11c-2.79,0-5.7-3.07-10.99-11.03c2.79-1.71,4.78-4.34,4.78-7.53c0-3.03-2.99-6.33-8.92-6.33 c-1.79,0-3.39,0.08-4.86,0.08c-1.47,0-3.5-0.08-5.26-0.08c-0.08,0-0.12,0.2-0.12,0.4s0.04,0.44,0.16,0.44 c1.55,0.16,2.23,0.28,2.71,0.56c0.52,0.28,0.84,1.43,0.84,8.68v5.81c0,7.25-0.32,8.32-0.84,8.6c-0.48,0.28-1.15,0.4-2.71,0.56 c-0.12,0.04-0.16,0.24-0.16,0.44c0,0.2,0.04,0.4,0.12,0.4h11.27c0.04,0,0.08-0.16,0.08-0.36s-0.04-0.44-0.12-0.48 c-1.75-0.2-2.95-0.28-3.46-0.56c-0.48-0.28-0.84-1.35-0.84-8.6v-1.04c0.88,0.04,1.55,0.08,2.31,0.08c0.56,0,1.15-0.04,1.95-0.04 c3.23,5.46,5.38,8.32,7.41,9.72c1.55,1.04,3.08,1.28,5.51,1.28c0.92,0,1.65,0,2.53,0h9.17c0.04,0,0.08-0.16,0.08-0.36 s-0.04-0.44-0.12-0.48C191.03,81.38,190.04,81.26,189.56,80.98z M167.33,69.99c-1.91,0-3.03-0.16-3.31-0.44 c-0.16-0.16-0.24-0.6-0.24-2.99c0-5.77,0.24-8.12,0.4-8.36c0.16-0.16,1.35-0.36,2.71-0.36c3.82,0,5.22,2.75,5.22,6.57 C172.11,67.52,170.6,69.99,167.33,69.99z"></path> <path d="M210.6,42.95c-0.89-0.06-1.33-0.17-1.89-0.5c-0.56-0.33-1-0.61-3.23-6.29l-2-5.12c-0.89-2.34-1.72-4.34-2.5-6.68 c-0.06-0.11-0.39-0.17-0.72-0.17c-0.33,0-0.67,0.06-0.67,0.17c-0.78,2.34-1.78,4.95-2.73,7.45l-1.67,4.34 c-1.78,4.67-2.45,5.79-3.06,6.23c-0.45,0.33-1.11,0.51-1.95,0.51c-0.85,0-1.99-0.2-2.39-0.45s-0.67-0.83-0.67-6.29v-4.34 c0-5.45,0.28-6.12,0.67-6.29c0.33-0.22,1.11-0.39,2.34-0.56c0.06,0,0.11-0.28,0.11-0.45c0-0.11-0.06-0.22-0.06-0.22h-8.85 c0,0-0.06,0.11-0.06,0.22c0,0.17,0.06,0.45,0.11,0.45c1.22,0.17,2,0.33,2.34,0.56c0.39,0.17,0.67,0.83,0.67,6.29v4.34 c0,5.45-0.28,6.12-0.67,6.29c-0.33,0.22-1.11,0.39-2.34,0.5c-0.06,0.06-0.11,0.22-0.11,0.44c0,0.11,0.06,0.28,0.06,0.28h8.84h0 h6.45c0.06,0,0.11-0.22,0.11-0.39c0-0.17-0.06-0.33-0.11-0.33c-1.28-0.11-1.72-0.39-1.72-0.89c0-0.45,0.11-1.11,0.67-2.61 l0.67-1.84h7.07l0.83,2.06c0.67,1.67,0.83,2.23,0.83,2.56c0,0.44-0.61,0.67-1.56,0.72c-0.06,0-0.06,0.11-0.06,0.28 c0,0.22,0,0.44,0.06,0.44h7.18c0.06,0,0.06-0.22,0.06-0.44C210.66,43.06,210.66,42.95,210.6,42.95z M196.81,36.21l2.95-7.9 l3.06,7.9H196.81z"></path> <path d="M245.78,114.34c0.26,0.44,0.67,1.3,0.67,1.41c0,0.15-0.11,0.26-0.3,0.26c-0.74,0-1.52,0.15-2.3,0.41l-1.08,0.33 c-0.48,0.15-0.67,0.26-1.04,0.26c-0.26,0-0.33-0.15-0.33-0.3c0-0.15,0.04-0.3,0.22-0.41l3.3-2.11c0.15-0.11,0.33-0.19,0.41-0.19 C245.48,114,245.63,114.12,245.78,114.34z M261.32,131.21c-0.59-0.07-0.93-0.19-1.22-0.41c-0.37-0.19-0.96-1.41-1.3-2.22 l-3.89-9.86c0-0.07-0.52-0.11-0.74-0.11s-0.63,0.04-0.67,0.11l-3.74,9.6c-0.52,1.33-0.96,2.15-1.41,2.48 c-0.2,0.15-0.45,0.25-0.78,0.32c-0.08,0.02-0.17,0.03-0.26,0.04c-0.28,0.03-0.6,0.04-0.91,0.01c-0.42-0.05-0.72-0.12-0.93-0.2 c-0.08-0.03-0.15-0.06-0.21-0.09c-0.06-0.03-0.11-0.07-0.16-0.16c-0.16-0.29-0.27-1.11-0.27-3.88v-2.89c0-3.63,0.19-3.93,0.45-4.04 c0.26-0.15,0.67-0.26,1.48-0.37c0.04,0,0.07-0.19,0.07-0.3c0-0.07-0.04-0.3-0.04-0.3h-6.27c-0.04,0-0.04,0.26-0.04,0.37 s0,0.22,0.07,0.22c0.82,0.11,1.22,0.22,1.48,0.37c0.26,0.11,0.48,0.41,0.48,4.04v2.89c0,3.63-0.15,3.93-0.41,4.04 c-0.26,0.15-0.74,0.26-1.56,0.33c-0.07,0.04-0.07,0.15-0.07,0.26c0,0.11,0,0.37,0.04,0.37H247h0.07h5.01 c0.04,0,0.04-0.26,0.04-0.37c0-0.07,0-0.26-0.04-0.26c-0.89-0.11-1.52-0.3-1.52-0.67c0-0.48,0.37-1.33,0.7-2.19l0.22-0.59h4.6 c0.71,1.71,0.96,2.52,0.96,2.89c0,0.3-0.52,0.45-1.3,0.56c-0.04,0-0.04,0.19-0.04,0.26c0,0.11,0,0.37,0.04,0.37h5.56 c0.04,0,0.07-0.26,0.07-0.37C261.39,131.36,261.35,131.21,261.32,131.21z M251.82,126.76l1.85-5.01l2,5.01H251.82z"></path> <path d="M196.06,95.29h-5.38c0,0-0.04,0.26-0.04,0.33c0,0.15,0.04,0.26,0.07,0.3c0.82,0.07,1.22,0.19,1.48,0.33 c0.19,0.07,0.48,0.26,0.52,2.41l0.07,6.04l-9.68-9.57c0-0.04-0.37-0.07-0.52-0.07c-0.33,0-0.45,0.07-0.45,0.15 c0,0.48,0.19,3.41,0.19,5.08v4.56c0,1.96-0.26,2.25-0.44,2.37c-0.15,0.1-0.84,0.31-1.49,0.31c-0.69,0-1.08-0.22-1.33-0.39 c-0.43-0.29-0.96-1.41-1.3-2.22l-3.89-9.86c0-0.07-0.52-0.11-0.74-0.11s-0.63,0.04-0.67,0.11l-3.74,9.6 c-0.52,1.33-0.96,2.15-1.41,2.48c-0.3,0.22-0.71,0.33-1.33,0.41c-0.04,0-0.04,0.18-0.04,0.26c0,0.11,0,0.37,0.04,0.37h5.08 c0.04,0,0.04-0.26,0.04-0.37c0-0.07,0-0.26-0.04-0.26c-0.89-0.11-1.52-0.3-1.52-0.67c0-0.48,0.37-1.33,0.7-2.19l0.22-0.59h4.6 c0.71,1.71,0.96,2.52,0.96,2.89c0,0.3-0.52,0.45-1.3,0.56c-0.04,0-0.04,0.18-0.04,0.26c0,0.11,0,0.37,0.04,0.37h5.64h0.09h5.29 c0,0,0.04-0.26,0.04-0.33c0-0.15-0.04-0.26-0.07-0.3c-0.82-0.07-1.22-0.19-1.48-0.33c-0.19-0.07-0.48-0.26-0.52-2.41l-0.07-5.78 l9.49,9.23c0.04,0.04,0.19,0.07,0.33,0.07c0.19,0,0.74-0.07,0.74-0.15c-0.11-1.56-0.11-3.34-0.11-5.01v-4.56 c0-1.96,0.26-2.3,0.45-2.37c0.26-0.15,0.67-0.26,1.48-0.33c0.07-0.04,0.07-0.15,0.07-0.26C196.09,95.55,196.09,95.29,196.06,95.29z M170.81,103.11l1.85-5.01l2,5.01H170.81z"></path>
</g>
</svg>